<?xml version="1.0" encoding="UTF-8" standalone="no"?><!-- Generator: Gravit.io --><svg xmlns="http://www.w3.org/2000/svg" xmlns:xlink="http://www.w3.org/1999/xlink" style="isolation:isolate" viewBox="4 6 625 352" width="625pt" height="352pt"><defs><clipPath id="_clipPath_4kyBCYOww23wq9QTQ0K8WhHVIhTYeDvt"><rect width="630.1" height="366"/></clipPath></defs><g clip-path="url(#_clipPath_4kyBCYOww23wq9QTQ0K8WhHVIhTYeDvt)"><path d=" M 232.36 146.006 L 312.059 146.006 Q 343.423 145.56 353.502 119.053 C 366.762 84.185 336.623 61.98 317.855 61.091 Q 296.844 60.094 232.36 61.091 L 232.36 32.109 Q 315.242 31.96 320.753 32.833 C 389.313 43.701 393.116 107.642 375.818 137.891 C 358.52 168.141 334.248 172.669 310.61 174.118 Q 310.519 174.124 232.36 174.118 L 232.36 146.006 Z " fill="rgb(65,65,227)" vector-effect="non-scaling-stroke" stroke-width="0.5" stroke="rgb(0,0,0)" stroke-opacity="100" stroke-linejoin="miter" stroke-linecap="square" stroke-miterlimit="3"/><path d=" M 232.36 32.109 L 216.42 48.049 L 216.42 77.03 L 232.36 61.091 L 232.36 32.109 Z " fill="rgb(162,161,160)" vector-effect="non-scaling-stroke" stroke-width="0.5" stroke="rgb(0,0,0)" stroke-opacity="100" stroke-linejoin="miter" stroke-linecap="square" stroke-miterlimit="3"/><path d=" M 355.531 111.808 Q 358.158 99.174 355.241 91.521 Q 342.678 58.552 304.814 61.091 L 232.36 61.091 L 216.42 77.03 L 229.462 77.03 L 229.462 72.683 L 238.156 63.988 L 267.138 63.988 L 267.138 77.03 L 291.772 77.03 L 290.902 72.683 L 297.568 65.438 Q 318.15 63.83 326.55 66.887 Q 326.58 66.898 329.448 79.928 Q 350.369 88.668 355.531 111.808 Z " fill="rgb(162,161,160)" vector-effect="non-scaling-stroke" stroke-width="0.5" stroke="rgb(0,0,0)" stroke-opacity="100" stroke-linejoin="miter" stroke-linecap="square" stroke-miterlimit="3"/><path d=" M 232.36 146.586 L 216.42 161.077 L 216.42 179.915 C 217.325 182.586 219.952 186.3 219.898 186.435 Q 219.768 186.759 232.36 174.118 L 232.36 146.586 Z " fill="rgb(162,161,160)" vector-effect="non-scaling-stroke" stroke-width="0.5" stroke="rgb(41,41,41)" stroke-opacity="100" stroke-linejoin="miter" stroke-linecap="square" stroke-miterlimit="3"/><path d=" M 312.059 174.118 C 312.229 174.003 232.36 174.299 232.36 174.118 L 220.043 186.29 Q 220.903 188.405 222.941 190.493 Q 223.038 190.592 230.186 190.493 L 230.186 185.711 L 238.156 178.465 L 266.558 178.465 L 266.558 190.058 Q 320.563 191.507 331.621 188.609 Q 331.652 188.601 329.448 184.262 L 333.795 175.568 Q 354.263 168.299 359.299 163.395 Q 359.358 163.337 363.211 170.495 Q 388.751 149.303 384.223 95.868 Q 386.913 137.529 355.531 161.077 Q 340.135 172.488 312.059 174.118 Z " fill="rgb(162,161,160)" vector-effect="non-scaling-stroke" stroke-width="0.5" stroke="rgb(41,41,41)" stroke-opacity="100" stroke-linejoin="miter" stroke-linecap="square" stroke-miterlimit="3"/><path d=" M 238.156 94.709 L 238.156 64.713 L 230.186 72.683 L 230.186 97.317 Q 232.36 96.185 238.156 94.709 Z " fill="rgb(209,207,207)" vector-effect="non-scaling-stroke" stroke-width="0.5" stroke="rgb(41,41,41)" stroke-opacity="100" stroke-linejoin="miter" stroke-linecap="square" stroke-miterlimit="3"/><path d=" M 230.911 14.72 L 238.156 6.895 L 238.156 32.109 L 232.36 32.109 L 230.911 33.558 L 230.911 14.72 Z " fill="rgb(209,207,207)" vector-effect="non-scaling-stroke" stroke-width="0.5" stroke="rgb(0,0,0)" stroke-opacity="100" stroke-linejoin="miter" stroke-linecap="square" stroke-miterlimit="3"/><path d=" M 230.186 185.711 L 230.186 197.883 Q 234.352 200.972 238.156 202.52 Q 238.399 202.619 238.156 178.465 L 230.186 185.711 Z " fill="rgb(209,207,207)" vector-effect="non-scaling-stroke" stroke-width="0.5" stroke="rgb(41,41,41)" stroke-opacity="100" stroke-linejoin="miter" stroke-linecap="square" stroke-miterlimit="3"/><path d=" M 230.186 255.846 L 238.156 248.021 L 238.156 237.153 L 230.186 246.572 L 230.186 255.846 Z " fill="rgb(209,207,207)" vector-effect="non-scaling-stroke" stroke-width="0.5" stroke="rgb(41,41,41)" stroke-opacity="100" stroke-linejoin="miter" stroke-linecap="square" stroke-miterlimit="3"/><path d=" M 238.156 248.021 L 266.413 248.021 L 258.443 255.846 L 230.186 255.846 L 238.156 248.021 Z " fill="rgb(209,207,207)" vector-effect="non-scaling-stroke" stroke-width="0.5" stroke="rgb(41,41,41)" stroke-opacity="100" stroke-linejoin="miter" stroke-linecap="square" stroke-miterlimit="3"/><path d=" M 230.331 136.442 L 238.156 129.197 L 238.156 146.006 L 232.36 146.006 L 230.331 148.035 L 230.331 136.442 Z " fill="rgb(209,207,207)" vector-effect="non-scaling-stroke" stroke-width="0.5" stroke="rgb(41,41,41)" stroke-opacity="100" stroke-linejoin="miter" stroke-linecap="square" stroke-miterlimit="3"/><path d=" M 290.758 72.683 Q 302.278 123.446 312.059 146.006 C 312.164 146.247 321.115 146.043 320.753 145.137 Q 307.583 112.211 297.568 65.438 L 290.758 72.683 Z " fill="rgb(209,207,207)" vector-effect="non-scaling-stroke" stroke-width="0.5" stroke="rgb(41,41,41)" stroke-opacity="100" stroke-linejoin="miter" stroke-linecap="square" stroke-miterlimit="3"/><path d=" M 329.448 184.262 L 333.795 175.568 Q 361.146 225.56 378.717 248.021 Q 378.779 248.101 372.92 253.238 Q 348.105 221.576 329.448 184.262 Z " fill="rgb(209,207,207)" vector-effect="non-scaling-stroke" stroke-width="0.5" stroke="rgb(41,41,41)" stroke-opacity="100" stroke-linejoin="miter" stroke-linecap="square" stroke-miterlimit="3"/><path d=" M 378.717 248.021 L 403.35 233.53 L 397.554 239.761 L 372.92 253.238 L 378.717 248.021 Z " fill="rgb(209,207,207)" vector-effect="non-scaling-stroke" stroke-width="0.5" stroke="rgb(41,41,41)" stroke-opacity="100" stroke-linejoin="miter" stroke-linecap="square" stroke-miterlimit="3"/><path d=" M 292.207 32.109 Q 291.873 33.362 289.743 6.75 L 282.353 13.851 Q 283.349 27.286 283.947 32.109 C 283.952 32.151 292.225 32.041 292.207 32.109 Z " fill="rgb(209,207,207)" vector-effect="non-scaling-stroke" stroke-width="0.5" stroke="rgb(0,0,0)" stroke-opacity="100" stroke-linejoin="miter" stroke-linecap="square" stroke-miterlimit="3"/><path d=" M 289.743 6.75 L 317.855 6.75 L 320.464 32.978 Q 310.157 32.154 291.772 32.109 Q 291.727 32.109 289.743 6.75 Z " fill="rgb(0,172,88)" vector-effect="non-scaling-stroke" stroke-width="0.5" stroke="rgb(0,0,0)" stroke-opacity="100" stroke-linejoin="miter" stroke-linecap="square" stroke-miterlimit="3"/><path d=" M 238.156 129.197 Q 251.107 122.722 266.413 126.734 Q 266.504 126.757 266.413 145.862 L 238.156 145.862 L 238.156 129.197 Z " fill="rgb(0,172,88)" vector-effect="non-scaling-stroke" stroke-width="0.5" stroke="rgb(41,41,41)" stroke-opacity="100" stroke-linejoin="miter" stroke-linecap="square" stroke-miterlimit="3"/><path d=" M 238.156 178.465 L 266.413 178.465 L 266.413 204.549 Q 251.651 208.181 238.156 202.52 Q 238.063 202.481 238.156 178.465 Z " fill="rgb(0,172,88)" vector-effect="non-scaling-stroke" stroke-width="0.5" stroke="rgb(41,41,41)" stroke-opacity="100" stroke-linejoin="miter" stroke-linecap="square" stroke-miterlimit="3"/><path d=" M 266.413 237.877 L 266.413 248.021 L 238.156 248.021 L 238.156 236.863 Q 252.466 239.734 266.413 237.877 Z " fill="rgb(0,172,88)" vector-effect="non-scaling-stroke" stroke-width="0.5" stroke="rgb(41,41,41)" stroke-opacity="100" stroke-linejoin="miter" stroke-linecap="square" stroke-miterlimit="3"/><path d=" M 297.568 65.438 Q 317.765 63.943 326.55 66.887 Q 327.727 78.887 345.388 132.53 Q 336.693 142.918 320.753 145.137 Q 311.154 124.488 297.568 65.438 Z " fill="rgb(0,172,88)" vector-effect="non-scaling-stroke" stroke-width="0.5" stroke="rgb(41,41,41)" stroke-opacity="100" stroke-linejoin="miter" stroke-linecap="square" stroke-miterlimit="3"/><path d=" M 238.156 64.713 L 238.156 94.709 Q 254.096 91.295 267.138 93.55 Q 267.194 82.013 267.138 64.713 L 238.156 64.713 Z " fill="rgb(0,172,88)" vector-effect="non-scaling-stroke" stroke-width="0.5" stroke="rgb(41,41,41)" stroke-opacity="100" stroke-linejoin="miter" stroke-linecap="square" stroke-miterlimit="3"/><path d=" M 333.795 175.568 Q 348.648 170.722 359.444 163.54 Q 391.033 220.579 403.35 233.53 Q 396.83 237.425 378.717 248.021 Q 349.735 206.813 333.795 175.568 Z " fill="rgb(0,172,88)" vector-effect="non-scaling-stroke" stroke-width="0.5" stroke="rgb(41,41,41)" stroke-opacity="100" stroke-linejoin="miter" stroke-linecap="square" stroke-miterlimit="3"/><path d=" M 238.156 6.895 L 267.138 6.895 L 267.138 32.109 L 238.156 32.109 L 238.156 6.895 Z " fill="rgb(0,172,88)" vector-effect="non-scaling-stroke" stroke-width="0.5" stroke="rgb(0,0,0)" stroke-opacity="100" stroke-linejoin="miter" stroke-linecap="square" stroke-miterlimit="3"/><path d=" M 293.221 103.114 Q 256.089 83.053 222.216 101.23 Q 206.457 108.864 194.684 127.748 Q 184.911 142.413 184.975 159.627 C 185.084 188.971 195.77 207.809 217.869 223.387 Q 255.907 246.572 293.221 223.387 L 278.73 200.202 Q 237.208 219.263 216.42 179.915 C 198.85 141.152 248.3 106.012 278.006 127.748 L 293.221 103.114 Z " fill="rgb(236,52,56)" fill-opacity="0.87" vector-effect="non-scaling-stroke" stroke-width="0.5" stroke="rgb(41,41,41)" stroke-opacity="100" stroke-linejoin="miter" stroke-linecap="square" stroke-miterlimit="3"/><path d=" M 193.831 197.303 C 179.468 169.318 182.367 137.076 204.392 114.706 Q 158.366 155.19 171.499 198.753 Q 184.181 240.823 230.041 250.195 L 230.041 246.717 Q 238.062 237.431 238.156 237.443 C 257.718 239.915 266.413 237.719 266.413 237.877 Q 266.413 237.928 266.413 245.558 Q 278.006 243.402 293.221 223.387 Q 251.651 248.972 210.623 217.88 Q 200.075 208.918 193.831 197.303 Z " fill="rgb(162,161,160)" vector-effect="non-scaling-stroke" stroke-width="0.5" stroke="rgb(41,41,41)" stroke-opacity="100" stroke-linejoin="miter" stroke-linecap="square" stroke-miterlimit="3"/><path d=" M 266.413 126.878 Q 252.262 122.382 238.156 129.197 L 230.186 136.442 Q 230.186 138.209 230.186 139.341 Q 225.839 139.839 219.318 142.239 Q 223.758 135.002 231.2 129.921 Q 255.545 113.302 278.151 127.748 L 266.413 139.341 Q 266.413 131.968 266.413 126.878 Z " fill="rgb(162,161,160)" vector-effect="non-scaling-stroke" stroke-width="0.5" stroke="rgb(41,41,41)" stroke-opacity="100" stroke-linejoin="miter" stroke-linecap="square" stroke-miterlimit="3"/><g clip-path="url(#_clipPath_7ZPST3HufPhtIQtoGCUGJ8qJdSegs3JD)"><text transform="matrix(1.737,0,0,1.737,0,321.076)" style="font-family:'MADE INFINITY PERSONAL USE Light';font-weight:400;font-size:20px;font-style:normal;fill:#000000;stroke:none;">RH DESIGNS</text></g><defs><clipPath id="_clipPath_7ZPST3HufPhtIQtoGCUGJ8qJdSegs3JD"><rect x="0" y="0" width="119.981" height="32.151" transform="matrix(1.737,0,0,1.737,0,282.968)"/></clipPath></defs><g clip-path="url(#_clipPath_xo0I9uii1fCsZun9cvMqfIUmmJkNj4Fs)"><text transform="matrix(1.737,0,0,1.737,259.936,321.076)" style="font-family:'MADE INFINITY PERSONAL USE Light';font-weight:400;font-size:20px;font-style:normal;fill:#000000;stroke:none;">CONSTRUCTIONS LLC </text></g><defs><clipPath id="_clipPath_xo0I9uii1fCsZun9cvMqfIUmmJkNj4Fs"><rect x="0" y="0" width="225.93" height="32.151" transform="matrix(1.737,0,0,1.737,259.936,282.968)"/></clipPath></defs><g clip-path="url(#_clipPath_KlamAGPuQ5S0KIMKH9L80S4Yz6uhNLTQ)"><text transform="matrix(1.737,0,0,1.737,219.028,321.076)" style="font-family:'MADE INFINITY PERSONAL USE Light';font-weight:400;font-size:20px;font-style:normal;fill:#000000;stroke:none;">&#x26;</text></g><defs><clipPath id="_clipPath_KlamAGPuQ5S0KIMKH9L80S4Yz6uhNLTQ"><rect x="0" y="0" width="17.799" height="32.151" transform="matrix(1.737,0,0,1.737,219.028,282.968)"/></clipPath></defs><g clip-path="url(#_clipPath_30fQcVDaG9ZJpHPtWvCLx9L1gUTZhVCP)"><text transform="matrix(1.198,0,0,1.198,153.053,357.099)" style="font-family:'MADE INFINITY PERSONAL USE Light';font-weight:400;font-size:20px;font-style:normal;fill:#000000;stroke:none;">BATHROOMS &#x26; KITCHENS</text></g><defs><clipPath id="_clipPath_30fQcVDaG9ZJpHPtWvCLx9L1gUTZhVCP"><rect x="0" y="0" width="267.327" height="43.969" transform="matrix(1.198,0,0,1.198,153.053,330.812)"/></clipPath></defs></g></svg>