<?xml version="1.0" encoding="UTF-8" standalone="no"?><!-- Generator: Gravit.io --><svg xmlns="http://www.w3.org/2000/svg" xmlns:xlink="http://www.w3.org/1999/xlink" style="isolation:isolate" viewBox="2 2 70 230" width="70pt" height="230pt"><defs><clipPath id="_clipPath_SUsbiPfjR7CnDBlA8RA1flw6Kvs90BnL"><rect width="73" height="233"/></clipPath></defs><g clip-path="url(#_clipPath_SUsbiPfjR7CnDBlA8RA1flw6Kvs90BnL)"><path d=" M 3.96 162 C 2.88 162 2 162.89 2 163.99 C 2 165.09 2.88 165.98 3.96 165.98 C 5.04 165.98 5.91 165.09 5.91 163.99 C 5.91 162.89 5.04 162 3.96 162 Z  M 17.17 162 C 16.09 162 15.22 162.89 15.22 163.99 C 15.22 165.09 16.09 165.98 17.17 165.98 C 18.25 165.98 19.13 165.09 19.13 163.99 C 19.13 162.89 18.25 162 17.17 162 Z  M 30.39 162 C 29.31 162 28.44 162.89 28.44 163.99 C 28.44 165.09 29.31 165.98 30.39 165.98 C 31.47 165.98 32.35 165.09 32.35 163.99 C 32.35 162.89 31.47 162 30.39 162 Z  M 43.61 162 C 42.53 162 41.65 162.89 41.65 163.99 C 41.65 165.09 42.53 165.98 43.61 165.98 C 44.69 165.98 45.56 165.09 45.56 163.99 C 45.56 162.89 44.69 162 43.61 162 Z  M 56.83 162 C 55.75 162 54.87 162.89 54.87 163.99 C 54.87 165.09 55.75 165.98 56.83 165.98 C 57.91 165.98 58.78 165.09 58.78 163.99 C 58.78 162.89 57.91 162 56.83 162 Z  M 70.04 165.98 C 71.12 165.98 72 165.09 72 163.99 C 72 162.89 71.12 162 70.04 162 C 68.96 162 68.09 162.89 68.09 163.99 C 68.09 165.09 68.96 165.98 70.04 165.98 Z  M 3.96 175.2 C 2.88 175.2 2 176.09 2 177.19 C 2 178.29 2.88 179.18 3.96 179.18 C 5.04 179.18 5.91 178.29 5.91 177.19 C 5.91 176.09 5.04 175.2 3.96 175.2 Z  M 17.17 175.2 C 16.09 175.2 15.22 176.09 15.22 177.19 C 15.22 178.29 16.09 179.18 17.17 179.18 C 18.25 179.18 19.13 178.29 19.13 177.19 C 19.13 176.09 18.25 175.2 17.17 175.2 Z  M 30.39 175.2 C 29.31 175.2 28.44 176.09 28.44 177.19 C 28.44 178.29 29.31 179.18 30.39 179.18 C 31.47 179.18 32.35 178.29 32.35 177.19 C 32.35 176.09 31.47 175.2 30.39 175.2 Z  M 43.61 175.2 C 42.53 175.2 41.65 176.09 41.65 177.19 C 41.65 178.29 42.53 179.18 43.61 179.18 C 44.69 179.18 45.56 178.29 45.56 177.19 C 45.56 176.09 44.69 175.2 43.61 175.2 Z  M 56.83 175.2 C 55.75 175.2 54.87 176.09 54.87 177.19 C 54.87 178.29 55.75 179.18 56.83 179.18 C 57.91 179.18 58.78 178.29 58.78 177.19 C 58.78 176.09 57.91 175.2 56.83 175.2 Z  M 70.04 175.2 C 68.96 175.2 68.09 176.09 68.09 177.19 C 68.09 178.29 68.96 179.18 70.04 179.18 C 71.12 179.18 72 178.29 72 177.19 C 72 176.09 71.12 175.2 70.04 175.2 Z  M 3.96 188.4 C 2.88 188.4 2 189.3 2 190.4 C 2 191.5 2.88 192.39 3.96 192.39 C 5.04 192.39 5.91 191.5 5.91 190.4 C 5.91 189.3 5.04 188.4 3.96 188.4 Z  M 17.17 188.4 C 16.09 188.4 15.22 189.3 15.22 190.4 C 15.22 191.5 16.09 192.39 17.17 192.39 C 18.25 192.39 19.13 191.5 19.13 190.4 C 19.13 189.3 18.25 188.4 17.17 188.4 Z  M 30.39 188.4 C 29.31 188.4 28.44 189.3 28.44 190.4 C 28.44 191.5 29.31 192.39 30.39 192.39 C 31.47 192.39 32.35 191.5 32.35 190.4 C 32.35 189.3 31.47 188.4 30.39 188.4 Z  M 43.61 188.4 C 42.53 188.4 41.65 189.3 41.65 190.4 C 41.65 191.5 42.53 192.39 43.61 192.39 C 44.69 192.39 45.56 191.5 45.56 190.4 C 45.56 189.3 44.69 188.4 43.61 188.4 Z  M 56.83 188.4 C 55.75 188.4 54.87 189.3 54.87 190.4 C 54.87 191.5 55.75 192.39 56.83 192.39 C 57.91 192.39 58.78 191.5 58.78 190.4 C 58.78 189.3 57.91 188.4 56.83 188.4 Z  M 70.04 188.4 C 68.96 188.4 68.09 189.3 68.09 190.4 C 68.09 191.5 68.96 192.39 70.04 192.39 C 71.12 192.39 72 191.5 72 190.4 C 72 189.3 71.12 188.4 70.04 188.4 Z  M 3.96 201.61 C 2.88 201.61 2 202.5 2 203.6 C 2 204.7 2.88 205.59 3.96 205.59 C 5.04 205.59 5.91 204.7 5.91 203.6 C 5.91 202.5 5.04 201.61 3.96 201.61 Z  M 17.17 201.61 C 16.09 201.61 15.22 202.5 15.22 203.6 C 15.22 204.7 16.09 205.59 17.17 205.59 C 18.25 205.59 19.13 204.7 19.13 203.6 C 19.13 202.5 18.25 201.61 17.17 201.61 Z  M 30.39 201.61 C 29.31 201.61 28.44 202.5 28.44 203.6 C 28.44 204.7 29.31 205.59 30.39 205.59 C 31.47 205.59 32.35 204.7 32.35 203.6 C 32.35 202.5 31.47 201.61 30.39 201.61 Z  M 43.61 201.61 C 42.53 201.61 41.65 202.5 41.65 203.6 C 41.65 204.7 42.53 205.59 43.61 205.59 C 44.69 205.59 45.56 204.7 45.56 203.6 C 45.56 202.5 44.69 201.61 43.61 201.61 Z  M 56.83 201.61 C 55.75 201.61 54.87 202.5 54.87 203.6 C 54.87 204.7 55.75 205.59 56.83 205.59 C 57.91 205.59 58.78 204.7 58.78 203.6 C 58.78 202.5 57.91 201.61 56.83 201.61 Z  M 70.04 201.61 C 68.96 201.61 68.09 202.5 68.09 203.6 C 68.09 204.7 68.96 205.59 70.04 205.59 C 71.12 205.59 72 204.7 72 203.6 C 72 202.5 71.12 201.61 70.04 201.61 Z  M 3.96 214.81 C 2.88 214.81 2 215.7 2 216.8 C 2 217.9 2.88 218.8 3.96 218.8 C 5.04 218.8 5.91 217.9 5.91 216.8 C 5.91 215.7 5.04 214.81 3.96 214.81 Z  M 17.17 214.81 C 16.09 214.81 15.22 215.7 15.22 216.8 C 15.22 217.9 16.09 218.8 17.17 218.8 C 18.25 218.8 19.13 217.9 19.13 216.8 C 19.13 215.7 18.25 214.81 17.17 214.81 Z  M 30.39 214.81 C 29.31 214.81 28.44 215.7 28.44 216.8 C 28.44 217.9 29.31 218.8 30.39 218.8 C 31.47 218.8 32.35 217.9 32.35 216.8 C 32.35 215.7 31.47 214.81 30.39 214.81 Z  M 43.61 214.81 C 42.53 214.81 41.65 215.7 41.65 216.8 C 41.65 217.9 42.53 218.8 43.61 218.8 C 44.69 218.8 45.56 217.9 45.56 216.8 C 45.56 215.7 44.69 214.81 43.61 214.81 Z  M 56.83 214.81 C 55.75 214.81 54.87 215.7 54.87 216.8 C 54.87 217.9 55.75 218.8 56.83 218.8 C 57.91 218.8 58.78 217.9 58.78 216.8 C 58.78 215.7 57.91 214.81 56.83 214.81 Z  M 70.04 214.81 C 68.96 214.81 68.09 215.7 68.09 216.8 C 68.09 217.9 68.96 218.8 70.04 218.8 C 71.12 218.8 72 217.9 72 216.8 C 72 215.7 71.12 214.81 70.04 214.81 Z  M 3.96 228.01 C 2.88 228.01 2 228.9 2 230.01 C 2 231.11 2.88 232 3.96 232 C 5.04 232 5.91 231.11 5.91 230.01 C 5.91 228.9 5.04 228.01 3.96 228.01 Z  M 17.17 228.01 C 16.09 228.01 15.22 228.9 15.22 230.01 C 15.22 231.11 16.09 232 17.17 232 C 18.25 232 19.13 231.11 19.13 230.01 C 19.13 228.9 18.25 228.01 17.17 228.01 Z  M 30.39 228.01 C 29.31 228.01 28.44 228.9 28.44 230.01 C 28.44 231.11 29.31 232 30.39 232 C 31.47 232 32.35 231.11 32.35 230.01 C 32.35 228.9 31.47 228.01 30.39 228.01 Z  M 43.61 228.01 C 42.53 228.01 41.65 228.9 41.65 230.01 C 41.65 231.11 42.53 232 43.61 232 C 44.69 232 45.56 231.11 45.56 230.01 C 45.56 228.9 44.69 228.01 43.61 228.01 Z  M 56.83 228.01 C 55.75 228.01 54.87 228.9 54.87 230.01 C 54.87 231.11 55.75 232 56.83 232 C 57.91 232 58.78 231.11 58.78 230.01 C 58.78 228.9 57.91 228.01 56.83 228.01 Z  M 70.04 228.01 C 68.96 228.01 68.09 228.9 68.09 230.01 C 68.09 231.11 68.96 232 70.04 232 C 71.12 232 72 231.11 72 230.01 C 72 228.9 71.12 228.01 70.04 228.01 Z  M 3.96 82 C 2.88 82 2 82.89 2 83.99 C 2 85.09 2.88 85.98 3.96 85.98 C 5.04 85.98 5.91 85.09 5.91 83.99 C 5.91 82.89 5.04 82 3.96 82 Z  M 17.17 82 C 16.09 82 15.22 82.89 15.22 83.99 C 15.22 85.09 16.09 85.98 17.17 85.98 C 18.25 85.98 19.13 85.09 19.13 83.99 C 19.13 82.89 18.25 82 17.17 82 Z  M 30.39 82 C 29.31 82 28.44 82.89 28.44 83.99 C 28.44 85.09 29.31 85.98 30.39 85.98 C 31.47 85.98 32.35 85.09 32.35 83.99 C 32.35 82.89 31.47 82 30.39 82 Z  M 43.61 82 C 42.53 82 41.65 82.89 41.65 83.99 C 41.65 85.09 42.53 85.98 43.61 85.98 C 44.69 85.98 45.56 85.09 45.56 83.99 C 45.56 82.89 44.69 82 43.61 82 Z  M 56.83 82 C 55.75 82 54.87 82.89 54.87 83.99 C 54.87 85.09 55.75 85.98 56.83 85.98 C 57.91 85.98 58.78 85.09 58.78 83.99 C 58.78 82.89 57.91 82 56.83 82 Z  M 70.04 85.98 C 71.12 85.98 72 85.09 72 83.99 C 72 82.89 71.12 82 70.04 82 C 68.96 82 68.09 82.89 68.09 83.99 C 68.09 85.09 68.96 85.98 70.04 85.98 Z  M 3.96 95.2 C 2.88 95.2 2 96.09 2 97.19 C 2 98.29 2.88 99.19 3.96 99.19 C 5.04 99.19 5.91 98.29 5.91 97.19 C 5.91 96.09 5.04 95.2 3.96 95.2 Z  M 17.17 95.2 C 16.09 95.2 15.22 96.09 15.22 97.19 C 15.22 98.29 16.09 99.19 17.17 99.19 C 18.25 99.19 19.13 98.29 19.13 97.19 C 19.13 96.09 18.25 95.2 17.17 95.2 Z  M 30.39 95.2 C 29.31 95.2 28.44 96.09 28.44 97.19 C 28.44 98.29 29.31 99.19 30.39 99.19 C 31.47 99.19 32.35 98.29 32.35 97.19 C 32.35 96.09 31.47 95.2 30.39 95.2 Z  M 43.61 95.2 C 42.53 95.2 41.65 96.09 41.65 97.19 C 41.65 98.29 42.53 99.19 43.61 99.19 C 44.69 99.19 45.56 98.29 45.56 97.19 C 45.56 96.09 44.69 95.2 43.61 95.2 Z  M 56.83 95.2 C 55.75 95.2 54.87 96.09 54.87 97.19 C 54.87 98.29 55.75 99.19 56.83 99.19 C 57.91 99.19 58.78 98.29 58.78 97.19 C 58.78 96.09 57.91 95.2 56.83 95.2 Z  M 70.04 95.2 C 68.96 95.2 68.09 96.09 68.09 97.19 C 68.09 98.29 68.96 99.19 70.04 99.19 C 71.12 99.19 72 98.29 72 97.19 C 72 96.09 71.12 95.2 70.04 95.2 Z  M 3.96 108.4 C 2.88 108.4 2 109.3 2 110.4 C 2 111.5 2.88 112.39 3.96 112.39 C 5.04 112.39 5.91 111.5 5.91 110.4 C 5.91 109.3 5.04 108.4 3.96 108.4 Z  M 17.17 108.4 C 16.09 108.4 15.22 109.3 15.22 110.4 C 15.22 111.5 16.09 112.39 17.17 112.39 C 18.25 112.39 19.13 111.5 19.13 110.4 C 19.13 109.3 18.25 108.4 17.17 108.4 Z  M 30.39 108.4 C 29.31 108.4 28.44 109.3 28.44 110.4 C 28.44 111.5 29.31 112.39 30.39 112.39 C 31.47 112.39 32.35 111.5 32.35 110.4 C 32.35 109.3 31.47 108.4 30.39 108.4 Z  M 43.61 108.4 C 42.53 108.4 41.65 109.3 41.65 110.4 C 41.65 111.5 42.53 112.39 43.61 112.39 C 44.69 112.39 45.56 111.5 45.56 110.4 C 45.56 109.3 44.69 108.4 43.61 108.4 Z  M 56.83 108.4 C 55.75 108.4 54.87 109.3 54.87 110.4 C 54.87 111.5 55.75 112.39 56.83 112.39 C 57.91 112.39 58.78 111.5 58.78 110.4 C 58.78 109.3 57.91 108.4 56.83 108.4 Z  M 70.04 108.4 C 68.96 108.4 68.09 109.3 68.09 110.4 C 68.09 111.5 68.96 112.39 70.04 112.39 C 71.12 112.39 72 111.5 72 110.4 C 72 109.3 71.12 108.4 70.04 108.4 Z  M 3.96 121.61 C 2.88 121.61 2 122.5 2 123.6 C 2 124.7 2.88 125.59 3.96 125.59 C 5.04 125.59 5.91 124.7 5.91 123.6 C 5.91 122.5 5.04 121.61 3.96 121.61 Z  M 17.17 121.61 C 16.09 121.61 15.22 122.5 15.22 123.6 C 15.22 124.7 16.09 125.59 17.17 125.59 C 18.25 125.59 19.13 124.7 19.13 123.6 C 19.13 122.5 18.25 121.61 17.17 121.61 Z  M 30.39 121.61 C 29.31 121.61 28.44 122.5 28.44 123.6 C 28.44 124.7 29.31 125.59 30.39 125.59 C 31.47 125.59 32.35 124.7 32.35 123.6 C 32.35 122.5 31.47 121.61 30.39 121.61 Z  M 43.61 121.61 C 42.53 121.61 41.65 122.5 41.65 123.6 C 41.65 124.7 42.53 125.59 43.61 125.59 C 44.69 125.59 45.56 124.7 45.56 123.6 C 45.56 122.5 44.69 121.61 43.61 121.61 Z  M 56.83 121.61 C 55.75 121.61 54.87 122.5 54.87 123.6 C 54.87 124.7 55.75 125.59 56.83 125.59 C 57.91 125.59 58.78 124.7 58.78 123.6 C 58.78 122.5 57.91 121.61 56.83 121.61 Z  M 70.04 121.61 C 68.96 121.61 68.09 122.5 68.09 123.6 C 68.09 124.7 68.96 125.59 70.04 125.59 C 71.12 125.59 72 124.7 72 123.6 C 72 122.5 71.12 121.61 70.04 121.61 Z  M 3.96 134.81 C 2.88 134.81 2 135.7 2 136.8 C 2 137.9 2.88 138.8 3.96 138.8 C 5.04 138.8 5.91 137.9 5.91 136.8 C 5.91 135.7 5.04 134.81 3.96 134.81 Z  M 17.17 134.81 C 16.09 134.81 15.22 135.7 15.22 136.8 C 15.22 137.9 16.09 138.8 17.17 138.8 C 18.25 138.8 19.13 137.9 19.13 136.8 C 19.13 135.7 18.25 134.81 17.17 134.81 Z  M 30.39 134.81 C 29.31 134.81 28.44 135.7 28.44 136.8 C 28.44 137.9 29.31 138.8 30.39 138.8 C 31.47 138.8 32.35 137.9 32.35 136.8 C 32.35 135.7 31.47 134.81 30.39 134.81 Z  M 43.61 134.81 C 42.53 134.81 41.65 135.7 41.65 136.8 C 41.65 137.9 42.53 138.8 43.61 138.8 C 44.69 138.8 45.56 137.9 45.56 136.8 C 45.56 135.7 44.69 134.81 43.61 134.81 Z  M 56.83 134.81 C 55.75 134.81 54.87 135.7 54.87 136.8 C 54.87 137.9 55.75 138.8 56.83 138.8 C 57.91 138.8 58.78 137.9 58.78 136.8 C 58.78 135.7 57.91 134.81 56.83 134.81 Z  M 70.04 134.81 C 68.96 134.81 68.09 135.7 68.09 136.8 C 68.09 137.9 68.96 138.8 70.04 138.8 C 71.12 138.8 72 137.9 72 136.8 C 72 135.7 71.12 134.81 70.04 134.81 Z  M 3.96 148.01 C 2.88 148.01 2 148.9 2 150.01 C 2 151.11 2.88 152 3.96 152 C 5.04 152 5.91 151.11 5.91 150.01 C 5.91 148.9 5.04 148.01 3.96 148.01 Z  M 17.17 148.01 C 16.09 148.01 15.22 148.9 15.22 150.01 C 15.22 151.11 16.09 152 17.17 152 C 18.25 152 19.13 151.11 19.13 150.01 C 19.13 148.9 18.25 148.01 17.17 148.01 Z  M 30.39 148.01 C 29.31 148.01 28.44 148.9 28.44 150.01 C 28.44 151.11 29.31 152 30.39 152 C 31.47 152 32.35 151.11 32.35 150.01 C 32.35 148.9 31.47 148.01 30.39 148.01 Z  M 43.61 148.01 C 42.53 148.01 41.65 148.9 41.65 150.01 C 41.65 151.11 42.53 152 43.61 152 C 44.69 152 45.56 151.11 45.56 150.01 C 45.56 148.9 44.69 148.01 43.61 148.01 Z  M 56.83 148.01 C 55.75 148.01 54.87 148.9 54.87 150.01 C 54.87 151.11 55.75 152 56.83 152 C 57.91 152 58.78 151.11 58.78 150.01 C 58.78 148.9 57.91 148.01 56.83 148.01 Z  M 70.04 148.01 C 68.96 148.01 68.09 148.9 68.09 150.01 C 68.09 151.11 68.96 152 70.04 152 C 71.12 152 72 151.11 72 150.01 C 72 148.9 71.12 148.01 70.04 148.01 Z  M 3.96 2 C 2.88 2 2 2.89 2 3.99 C 2 5.09 2.88 5.98 3.96 5.98 C 5.04 5.98 5.91 5.09 5.91 3.99 C 5.91 2.89 5.04 2 3.96 2 Z  M 17.17 2 C 16.09 2 15.22 2.89 15.22 3.99 C 15.22 5.09 16.09 5.98 17.17 5.98 C 18.25 5.98 19.13 5.09 19.13 3.99 C 19.13 2.89 18.25 2 17.17 2 Z  M 30.39 2 C 29.31 2 28.44 2.89 28.44 3.99 C 28.44 5.09 29.31 5.98 30.39 5.98 C 31.47 5.98 32.35 5.09 32.35 3.99 C 32.35 2.89 31.47 2 30.39 2 Z  M 43.61 2 C 42.53 2 41.65 2.89 41.65 3.99 C 41.65 5.09 42.53 5.98 43.61 5.98 C 44.69 5.98 45.56 5.09 45.56 3.99 C 45.56 2.89 44.69 2 43.61 2 Z  M 56.83 2 C 55.75 2 54.87 2.89 54.87 3.99 C 54.87 5.09 55.75 5.98 56.83 5.98 C 57.91 5.98 58.78 5.09 58.78 3.99 C 58.78 2.89 57.91 2 56.83 2 Z  M 70.04 5.98 C 71.12 5.98 72 5.09 72 3.99 C 72 2.89 71.12 2 70.04 2 C 68.96 2 68.09 2.89 68.09 3.99 C 68.09 5.09 68.96 5.98 70.04 5.98 Z  M 3.96 15.2 C 2.88 15.2 2 16.09 2 17.19 C 2 18.29 2.88 19.19 3.96 19.19 C 5.04 19.19 5.91 18.29 5.91 17.19 C 5.91 16.09 5.04 15.2 3.96 15.2 Z  M 17.17 15.2 C 16.09 15.2 15.22 16.09 15.22 17.19 C 15.22 18.29 16.09 19.19 17.17 19.19 C 18.25 19.19 19.13 18.29 19.13 17.19 C 19.13 16.09 18.25 15.2 17.17 15.2 Z  M 30.39 15.2 C 29.31 15.2 28.44 16.09 28.44 17.19 C 28.44 18.29 29.31 19.19 30.39 19.19 C 31.47 19.19 32.35 18.29 32.35 17.19 C 32.35 16.09 31.47 15.2 30.39 15.2 Z  M 43.61 15.2 C 42.53 15.2 41.65 16.09 41.65 17.19 C 41.65 18.29 42.53 19.19 43.61 19.19 C 44.69 19.19 45.56 18.29 45.56 17.19 C 45.56 16.09 44.69 15.2 43.61 15.2 Z  M 56.83 15.2 C 55.75 15.2 54.87 16.09 54.87 17.19 C 54.87 18.29 55.75 19.19 56.83 19.19 C 57.91 19.19 58.78 18.29 58.78 17.19 C 58.78 16.09 57.91 15.2 56.83 15.2 Z  M 70.04 15.2 C 68.96 15.2 68.09 16.09 68.09 17.19 C 68.09 18.29 68.96 19.19 70.04 19.19 C 71.12 19.19 72 18.29 72 17.19 C 72 16.09 71.12 15.2 70.04 15.2 Z  M 3.96 28.4 C 2.88 28.4 2 29.3 2 30.4 C 2 31.5 2.88 32.39 3.96 32.39 C 5.04 32.39 5.91 31.5 5.91 30.4 C 5.91 29.3 5.04 28.4 3.96 28.4 Z  M 17.17 28.4 C 16.09 28.4 15.22 29.3 15.22 30.4 C 15.22 31.5 16.09 32.39 17.17 32.39 C 18.25 32.39 19.13 31.5 19.13 30.4 C 19.13 29.3 18.25 28.4 17.17 28.4 Z  M 30.39 28.4 C 29.31 28.4 28.44 29.3 28.44 30.4 C 28.44 31.5 29.31 32.39 30.39 32.39 C 31.47 32.39 32.35 31.5 32.35 30.4 C 32.35 29.3 31.47 28.4 30.39 28.4 Z  M 43.61 28.4 C 42.53 28.4 41.65 29.3 41.65 30.4 C 41.65 31.5 42.53 32.39 43.61 32.39 C 44.69 32.39 45.56 31.5 45.56 30.4 C 45.56 29.3 44.69 28.4 43.61 28.4 Z  M 56.83 28.4 C 55.75 28.4 54.87 29.3 54.87 30.4 C 54.87 31.5 55.75 32.39 56.83 32.39 C 57.91 32.39 58.78 31.5 58.78 30.4 C 58.78 29.3 57.91 28.4 56.83 28.4 Z  M 70.04 28.4 C 68.96 28.4 68.09 29.3 68.09 30.4 C 68.09 31.5 68.96 32.39 70.04 32.39 C 71.12 32.39 72 31.5 72 30.4 C 72 29.3 71.12 28.4 70.04 28.4 Z  M 3.96 41.61 C 2.88 41.61 2 42.5 2 43.6 C 2 44.7 2.88 45.59 3.96 45.59 C 5.04 45.59 5.91 44.7 5.91 43.6 C 5.91 42.5 5.04 41.61 3.96 41.61 Z  M 17.17 41.61 C 16.09 41.61 15.22 42.5 15.22 43.6 C 15.22 44.7 16.09 45.59 17.17 45.59 C 18.25 45.59 19.13 44.7 19.13 43.6 C 19.13 42.5 18.25 41.61 17.17 41.61 Z  M 30.39 41.61 C 29.31 41.61 28.44 42.5 28.44 43.6 C 28.44 44.7 29.31 45.59 30.39 45.59 C 31.47 45.59 32.35 44.7 32.35 43.6 C 32.35 42.5 31.47 41.61 30.39 41.61 Z  M 43.61 41.61 C 42.53 41.61 41.65 42.5 41.65 43.6 C 41.65 44.7 42.53 45.59 43.61 45.59 C 44.69 45.59 45.56 44.7 45.56 43.6 C 45.56 42.5 44.69 41.61 43.61 41.61 Z  M 56.83 41.61 C 55.75 41.61 54.87 42.5 54.87 43.6 C 54.87 44.7 55.75 45.59 56.83 45.59 C 57.91 45.59 58.78 44.7 58.78 43.6 C 58.78 42.5 57.91 41.61 56.83 41.61 Z  M 70.04 41.61 C 68.96 41.61 68.09 42.5 68.09 43.6 C 68.09 44.7 68.96 45.59 70.04 45.59 C 71.12 45.59 72 44.7 72 43.6 C 72 42.5 71.12 41.61 70.04 41.61 Z  M 3.96 54.81 C 2.88 54.81 2 55.7 2 56.8 C 2 57.9 2.88 58.8 3.96 58.8 C 5.04 58.8 5.91 57.9 5.91 56.8 C 5.91 55.7 5.04 54.81 3.96 54.81 Z  M 17.17 54.81 C 16.09 54.81 15.22 55.7 15.22 56.8 C 15.22 57.9 16.09 58.8 17.17 58.8 C 18.25 58.8 19.13 57.9 19.13 56.8 C 19.13 55.7 18.25 54.81 17.17 54.81 Z  M 30.39 54.81 C 29.31 54.81 28.44 55.7 28.44 56.8 C 28.44 57.9 29.31 58.8 30.39 58.8 C 31.47 58.8 32.35 57.9 32.35 56.8 C 32.35 55.7 31.47 54.81 30.39 54.81 Z  M 43.61 54.81 C 42.53 54.81 41.65 55.7 41.65 56.8 C 41.65 57.9 42.53 58.8 43.61 58.8 C 44.69 58.8 45.56 57.9 45.56 56.8 C 45.56 55.7 44.69 54.81 43.61 54.81 Z  M 56.83 54.81 C 55.75 54.81 54.87 55.7 54.87 56.8 C 54.87 57.9 55.75 58.8 56.83 58.8 C 57.91 58.8 58.78 57.9 58.78 56.8 C 58.78 55.7 57.91 54.81 56.83 54.81 Z  M 70.04 54.81 C 68.96 54.81 68.09 55.7 68.09 56.8 C 68.09 57.9 68.96 58.8 70.04 58.8 C 71.12 58.8 72 57.9 72 56.8 C 72 55.7 71.12 54.81 70.04 54.81 Z  M 3.96 68.01 C 2.88 68.01 2 68.9 2 70.01 C 2 71.11 2.88 72 3.96 72 C 5.04 72 5.91 71.11 5.91 70.01 C 5.91 68.9 5.04 68.01 3.96 68.01 Z  M 17.17 68.01 C 16.09 68.01 15.22 68.9 15.22 70.01 C 15.22 71.11 16.09 72 17.17 72 C 18.25 72 19.13 71.11 19.13 70.01 C 19.13 68.9 18.25 68.01 17.17 68.01 Z  M 30.39 68.01 C 29.31 68.01 28.44 68.9 28.44 70.01 C 28.44 71.11 29.31 72 30.39 72 C 31.47 72 32.35 71.11 32.35 70.01 C 32.35 68.9 31.47 68.01 30.39 68.01 Z  M 43.61 68.01 C 42.53 68.01 41.65 68.9 41.65 70.01 C 41.65 71.11 42.53 72 43.61 72 C 44.69 72 45.56 71.11 45.56 70.01 C 45.56 68.9 44.69 68.01 43.61 68.01 Z  M 56.83 68.01 C 55.75 68.01 54.87 68.9 54.87 70.01 C 54.87 71.11 55.75 72 56.83 72 C 57.91 72 58.78 71.11 58.78 70.01 C 58.78 68.9 57.91 68.01 56.83 68.01 Z  M 70.04 68.01 C 68.96 68.01 68.09 68.9 68.09 70.01 C 68.09 71.11 68.96 72 70.04 72 C 71.12 72 72 71.11 72 70.01 C 72 68.9 71.12 68.01 70.04 68.01 Z " fill="rgb(21,134,9)"/></g></svg>